<?xml version="1.0" encoding="utf-8"?>
<svg xmlns="http://www.w3.org/2000/svg" viewBox="0 0 50 50" xmlns:bx="https://boxy-svg.com">
  <rect x="0" y="0" width="50" height="50" rx="0" ry="0" style="fill: rgb(216, 216, 216);" transform="matrix(0, 0, 0, 0, 11.40999984741211, 15.310999870300293)"/>
  <rect x="0" y="0" width="50" height="50" rx="0" ry="0" style="fill: rgb(216, 216, 216);" transform="matrix(0, 0, 0, 0, 11.40999985, 15.31099987)"/>
  <rect x="0" y="0" width="50" height="50" rx="0" ry="0" style="fill: rgb(216, 216, 216);" transform="matrix(0, 0, 0, 0, 11.40999985, 15.31099987)"/>
  <path style="fill: rgb(169, 169, 169);" d="M 0 5 H 50 A 0 0 0 0 1 50 5 V 50 A 0 0 0 0 1 50 50 H 0 A 0 0 0 0 1 0 50 V 5 A 0 0 0 0 1 0 5 Z" bx:shape="rect 0 5 50 45 0 0 0 2@d09a2d4c" id="rect-4"/>
  <path style="fill: rgb(31, 31, 31);" d="M 0 8 H 50 A 0 0 0 0 1 50 8 V 50 A 0 0 0 0 1 50 50 H 0 A 0 0 0 0 1 0 50 V 8 A 0 0 0 0 1 0 8 Z" bx:shape="rect 0 8 50 42 0 0 0 2@a4bb1906" id="rect-1"/>
  <path style="fill: rgb(169, 169, 169);" d="M 0 11 H 50 A 0 0 0 0 1 50 11 V 50 A 0 0 0 0 1 50 50 H 0 A 0 0 0 0 1 0 50 V 11 A 0 0 0 0 1 0 11 Z" bx:shape="rect 0 11 50 39 0 0 0 2@40190cb8" id="rect-2"/>
  <path style="fill: rgb(31, 31, 31);" d="M 0 14 H 50 A 0 0 0 0 1 50 14 V 50 A 0 0 0 0 1 50 50 H 0 A 0 0 0 0 1 0 50 V 14 A 0 0 0 0 1 0 14 Z" bx:shape="rect 0 14 50 36 0 0 0 2@1dc57826" id="rect-3"/>
  <path style="fill: rgb(41, 41, 41); stroke-width: 1;" d="M 21 46 H 29 A 0 0 0 0 1 29 46 V 50 A 0 0 0 0 1 29 50 H 21 A 0 0 0 0 1 21 50 V 46 A 0 0 0 0 1 21 46 Z" bx:shape="rect 21 46 8 4 0 0 0 2@d1f42b4c" id="rect-6"/>
  <path style="fill: rgb(41, 41, 41); stroke-width: 1;" d="M 17 42 H 25 A 0 0 0 0 1 25 42 V 46 A 0 0 0 0 1 25 46 H 17 A 0 0 0 0 1 17 46 V 42 A 0 0 0 0 1 17 42 Z" bx:shape="rect 17 42 8 4 0 0 0 2@5aabb486" id="rect-7"/>
  <path style="fill: rgb(41, 41, 41); stroke-width: 1;" d="M 17 38 H 21 A 0 0 0 0 1 21 38 V 42 A 0 0 0 0 1 21 42 H 17 A 0 0 0 0 1 17 42 V 38 A 0 0 0 0 1 17 38 Z" bx:shape="rect 17 38 4 4 0 0 0 2@be00de09" id="rect-5"/>
</svg>