<?xml version="1.0" encoding="utf-8"?>
<svg xmlns="http://www.w3.org/2000/svg" viewBox="0 0 100 100" xmlns:bx="https://boxy-svg.com">
  <path style="fill: rgb(31, 31, 31);" d="M 0 0 H 100 A 0 0 0 0 1 100 0 V 100 A 0 0 0 0 1 100 100 H 0 A 0 0 0 0 1 0 100 V 0 A 0 0 0 0 1 0 0 Z" bx:shape="rect 0 0 100 100 0 0 0 2@3f174525" id="rect-4"/>
  <rect width="106" height="1" style="fill: rgb(154, 154, 154); stroke-width: 1; transform-origin: 107.847px 0.5px;" x="54.851" transform="matrix(0.707107, 0.707107, -0.707107, 0.707107, -45.519604, 37.327397)"/>
  <rect width="106" height="1" style="fill: rgb(154, 154, 154); stroke-width: 1; transform-origin: 107.847px 0.5px;" x="54.851" transform="matrix(0.707107, 0.707107, -0.707107, 0.707107, -70.019607, 61.827393)"/>
  <rect width="106" height="1" style="fill: rgb(154, 154, 154); stroke-width: 1; transform-origin: 107.847px 0.5px;" x="54.851" transform="matrix(-0.707107, 0.707107, -0.707107, -0.707107, -70.019608, 37.327393)"/>
  <rect width="106" height="1" style="fill: rgb(154, 154, 154); stroke-width: 1; transform-origin: 107.847px 0.5px;" x="54.851" transform="matrix(-0.707107, 0.707107, -0.707107, -0.707107, -45.519616, 61.827393)"/>
</svg>