<?xml version="1.0" encoding="utf-8"?>
<svg xmlns="http://www.w3.org/2000/svg" viewBox="0 0 50 50" xmlns:bx="https://boxy-svg.com">
  <path style="fill: rgb(31, 31, 31);" d="M 0 0 H 50 A 0 0 0 0 1 50 0 V 50 A 0 0 0 0 1 50 50 H 0 A 0 0 0 0 1 0 50 V 0 A 0 0 0 0 1 0 0 Z" bx:shape="rect 0 0 50 50 0 0 0 2@965f665d" id="rect-4"/>
  <rect y="24.5" width="10" height="1" style="fill: rgb(154, 154, 154); stroke-width: 1;"/>
  <rect y="24.5" width="10" height="1" style="fill: rgb(154, 154, 154); stroke-width: 1; transform-origin: 5px 25px;" transform="matrix(0, 1, -1, 0, 20.000149, -20)"/>
  <rect y="24.5" width="10" height="1" style="fill: rgb(154, 154, 154); stroke-width: 1;" x="40"/>
  <rect y="24.5" width="10" height="1" style="fill: rgb(154, 154, 154); stroke-width: 1; transform-origin: 5px 25px;" transform="matrix(0, 1, -1, 0, 20.000149, 20)"/>
  <rect x="10" y="10" width="30" height="30" style="stroke: rgb(169, 169, 169); fill: none;"/>
</svg>