<?xml version="1.0" encoding="utf-8"?>
<svg xmlns="http://www.w3.org/2000/svg" viewBox="0 0 50 50" xmlns:bx="https://boxy-svg.com">
  <rect x="0" y="0" width="50" height="50" rx="0" ry="0" style="fill: rgb(216, 216, 216);" transform="matrix(0, 0, 0, 0, 11.40999984741211, 15.310999870300293)"/>
  <rect x="0" y="0" width="50" height="50" rx="0" ry="0" style="fill: rgb(216, 216, 216);" transform="matrix(0, 0, 0, 0, 11.40999985, 15.31099987)"/>
  <rect x="0" y="0" width="50" height="50" rx="0" ry="0" style="fill: rgb(216, 216, 216);" transform="matrix(0, 0, 0, 0, 11.40999985, 15.31099987)"/>
  <path style="fill: rgb(169, 169, 169);" d="M 17 5 H 50 A 0 0 0 0 1 50 5 V 50 A 0 0 0 0 1 50 50 H 5 A 0 0 0 0 1 5 50 V 17 A 12 12 0 0 1 17 5 Z" bx:shape="rect 5 5 45 45 0 12 12 0 0 0 0 0 0 0 0 0 2@754f1448" id="rect-4"/>
  <path style="fill: rgb(31, 31, 31);" d="M 22 10 H 50 A 0 0 0 0 1 50 10 V 50 A 0 0 0 0 1 50 50 H 10 A 0 0 0 0 1 10 50 V 22 A 12 12 0 0 1 22 10 Z" bx:shape="rect 10 10 40 40 0 12 12 0 0 0 0 0 0 0 0 0 2@8e14147e" id="rect-1"/>
</svg>