<?xml version="1.0" encoding="utf-8"?>
<svg xmlns="http://www.w3.org/2000/svg" viewBox="0 0 50 50" xmlns:bx="https://boxy-svg.com">
  <defs>
    <bx:export>
      <bx:file format="svg" href="#object-1" path="Untitled 2.svg"/>
    </bx:export>
  </defs>
  <rect x="0" y="0" width="50" height="50" rx="0" ry="0" style="fill: rgb(216, 216, 216);" transform="matrix(0, 0, 0, 0, 11.40999984741211, 15.310999870300293)"/>
  <path style="fill: rgb(31, 31, 31);" d="M 22 10 H 50 A 0 0 0 0 1 50 10 V 50 A 0 0 0 0 1 50 50 H 10 A 0 0 0 0 1 10 50 V 22 A 12 12 0 0 1 22 10 Z" bx:shape="rect 10 10 40 40 0 12 12 0 0 0 0 0 0 0 0 0 2@8e14147e" id="object-1"/>
  <rect x="0" y="0" width="50" height="50" rx="0" ry="0" style="fill: rgb(216, 216, 216);" transform="matrix(0, 0, 0, 0, 11.40999985, 15.31099987)"/>
  <path style="fill: rgb(31, 31, 31);" d="M 22 10 H 50 A 0 0 0 0 1 50 10 V 50 A 0 0 0 0 1 50 50 H 10 A 0 0 0 0 1 10 50 V 22 A 12 12 0 0 1 22 10 Z" bx:shape="rect 10 10 40 40 0 12 12 0 0 0 0 0 0 0 0 0 2@8e14147e" id="rect-2"/>
  <rect x="0" y="0" width="50" height="50" rx="0" ry="0" style="fill: rgb(216, 216, 216);" transform="matrix(0, 0, 0, 0, 11.40999985, 15.31099987)"/>
  <path style="fill: rgb(31, 31, 31);" d="M 0 0 H 50 A 0 0 0 0 1 50 0 V 50 A 0 0 0 0 1 50 50 H 0 A 0 0 0 0 1 0 50 V 0 A 0 0 0 0 1 0 0 Z" bx:shape="rect 0 0 50 50 0 0 0 2@965f665d" id="rect-4"/>
  <rect x="10" y="10.023" width="10" height="10" style="fill: rgb(41, 41, 41);"/>
  <rect x="30" y="10" width="10" height="10" style="fill: rgb(41, 41, 41); stroke-width: 1;"/>
  <rect x="20" y="20" width="10" height="15" style="fill: rgb(41, 41, 41); stroke-width: 1;"/>
  <rect x="20" y="20" width="10" height="15" style="fill: rgb(41, 41, 41); stroke-width: 1;"/>
  <rect x="15" y="25" width="5" height="15" style="fill: rgb(41, 41, 41); stroke-width: 1;"/>
  <rect x="30" y="25" width="5" height="15" style="fill: rgb(41, 41, 41); stroke-width: 1;"/>
</svg>